name rise30.9205peak61.366fall85.3838.mot
datacolumns 19
datarows 24
range 21.19825600000000 21.23658500000000
endheader
time	ground_force1_vx	ground_force1_vy	ground_force1_vz	ground_force1_px	ground_force1_py	ground_force1_pz	ground_force2_vx	ground_force2_vy	ground_force2_vz	ground_force2_px	ground_force2_py	ground_force2_pz	ground_torque1_x	ground_torque1_y	ground_torque1_z	ground_torque2_x	ground_torque2_y	ground_torque2_z	
21.19825600000000	1.63317200000000	688.79777100000001	44.04820600000000	0.24832400000000	0.00000000000000	0.10661200000000	0.00000000000000	0.00000000000000	0.00000000000000	0.00000000000000	0.00000000000000	0.00000000000000	0.00000000000000	19.42133300000000	0.00000000000000	0.00000000000000	0.00000000000000	0.00000000000000	
21.19993000000000	1.13207000000000	689.68532300000004	44.13551400000000	0.24776000000000	0.00000000000000	0.10660800000000	0.00000000000000	0.00000000000000	0.00000000000000	0.00000000000000	0.00000000000000	0.00000000000000	0.00000000000000	19.56465500000000	0.00000000000000	0.00000000000000	0.00000000000000	0.00000000000000	
21.20159800000000	0.62425200000000	690.62165800000002	44.22400700000000	0.24718300000000	0.00000000000000	0.10660300000000	0.00000000000000	0.00000000000000	0.00000000000000	0.00000000000000	0.00000000000000	0.00000000000000	0.00000000000000	19.71069900000000	0.00000000000000	0.00000000000000	0.00000000000000	0.00000000000000	
21.20325200000000	0.10969000000000	691.60660600000006	44.31366900000000	0.24659400000000	0.00000000000000	0.10659700000000	0.00000000000000	0.00000000000000	0.00000000000000	0.00000000000000	0.00000000000000	0.00000000000000	0.00000000000000	19.85930000000000	0.00000000000000	0.00000000000000	0.00000000000000	0.00000000000000	
21.20494300000000	-0.41161400000000	692.64002500000004	44.40449900000000	0.24598900000000	0.00000000000000	0.10659000000000	0.00000000000000	0.00000000000000	0.00000000000000	0.00000000000000	0.00000000000000	0.00000000000000	0.00000000000000	20.01029900000000	0.00000000000000	0.00000000000000	0.00000000000000	0.00000000000000	
21.20658600000000	-0.93962700000000	693.72179900000003	44.49651400000000	0.24536800000000	0.00000000000000	0.10658300000000	0.00000000000000	0.00000000000000	0.00000000000000	0.00000000000000	0.00000000000000	0.00000000000000	0.00000000000000	20.16354300000000	0.00000000000000	0.00000000000000	0.00000000000000	0.00000000000000	
21.20825400000000	-1.47429000000000	694.85183500000005	44.58974600000000	0.24472900000000	0.00000000000000	0.10657500000000	0.00000000000000	0.00000000000000	0.00000000000000	0.00000000000000	0.00000000000000	0.00000000000000	0.00000000000000	20.31888500000000	0.00000000000000	0.00000000000000	0.00000000000000	0.00000000000000	
21.20993400000000	-2.01551300000000	696.03005800000005	44.68423900000000	0.24407000000000	0.00000000000000	0.10656600000000	0.00000000000000	0.00000000000000	0.00000000000000	0.00000000000000	0.00000000000000	0.00000000000000	0.00000000000000	20.47618400000000	0.00000000000000	0.00000000000000	0.00000000000000	0.00000000000000	
21.21161300000000	-2.56317600000000	697.25641599999994	44.78005500000000	0.24339000000000	0.00000000000000	0.10655700000000	0.00000000000000	0.00000000000000	0.00000000000000	0.00000000000000	0.00000000000000	0.00000000000000	0.00000000000000	20.63530400000000	0.00000000000000	0.00000000000000	0.00000000000000	0.00000000000000	
21.21325400000000	-3.11713100000000	698.53086699999994	44.87726800000000	0.24268900000000	0.00000000000000	0.10654800000000	0.00000000000000	0.00000000000000	0.00000000000000	0.00000000000000	0.00000000000000	0.00000000000000	0.00000000000000	20.79611400000000	0.00000000000000	0.00000000000000	0.00000000000000	0.00000000000000	
21.21491800000000	-3.67719900000000	699.85338600000000	44.97596400000000	0.24196500000000	0.00000000000000	0.10653800000000	0.00000000000000	0.00000000000000	0.00000000000000	0.00000000000000	0.00000000000000	0.00000000000000	0.00000000000000	20.95849200000000	0.00000000000000	0.00000000000000	0.00000000000000	0.00000000000000	
21.21658600000000	-4.24317600000000	701.22395400000005	45.07624300000000	0.24121800000000	0.00000000000000	0.10652800000000	0.00000000000000	0.00000000000000	0.00000000000000	0.00000000000000	0.00000000000000	0.00000000000000	0.00000000000000	21.12231800000000	0.00000000000000	0.00000000000000	0.00000000000000	0.00000000000000	
21.21825500000000	-4.81482800000000	702.64255700000001	45.17821700000000	0.24044700000000	0.00000000000000	0.10651700000000	0.00000000000000	0.00000000000000	0.00000000000000	0.00000000000000	0.00000000000000	0.00000000000000	0.00000000000000	21.28748200000000	0.00000000000000	0.00000000000000	0.00000000000000	0.00000000000000	
21.21992300000000	-5.39189100000000	704.10918100000004	45.28200700000000	0.23965300000000	0.00000000000000	0.10650600000000	0.00000000000000	0.00000000000000	0.00000000000000	0.00000000000000	0.00000000000000	0.00000000000000	0.00000000000000	21.45387700000000	0.00000000000000	0.00000000000000	0.00000000000000	0.00000000000000	
21.22158800000000	-5.97408000000000	705.62381100000005	45.38774600000000	0.23883400000000	0.00000000000000	0.10649500000000	0.00000000000000	0.00000000000000	0.00000000000000	0.00000000000000	0.00000000000000	0.00000000000000	0.00000000000000	21.62140000000000	0.00000000000000	0.00000000000000	0.00000000000000	0.00000000000000	
21.22325400000000	-6.56107800000000	707.18642000000000	45.49557800000000	0.23799100000000	0.00000000000000	0.10648400000000	0.00000000000000	0.00000000000000	0.00000000000000	0.00000000000000	0.00000000000000	0.00000000000000	0.00000000000000	21.78995700000000	0.00000000000000	0.00000000000000	0.00000000000000	0.00000000000000	
21.22492900000000	-7.15254600000000	708.79696899999999	45.60565400000000	0.23712400000000	0.00000000000000	0.10647200000000	0.00000000000000	0.00000000000000	0.00000000000000	0.00000000000000	0.00000000000000	0.00000000000000	0.00000000000000	21.95945700000000	0.00000000000000	0.00000000000000	0.00000000000000	0.00000000000000	
21.22658300000000	-7.74812100000000	710.45540300000005	45.71813500000000	0.23623300000000	0.00000000000000	0.10646000000000	0.00000000000000	0.00000000000000	0.00000000000000	0.00000000000000	0.00000000000000	0.00000000000000	0.00000000000000	22.12981300000000	0.00000000000000	0.00000000000000	0.00000000000000	0.00000000000000	
21.22826000000000	-8.34741400000000	712.16163900000004	45.83318800000000	0.23531900000000	0.00000000000000	0.10644800000000	0.00000000000000	0.00000000000000	0.00000000000000	0.00000000000000	0.00000000000000	0.00000000000000	0.00000000000000	22.30094300000000	0.00000000000000	0.00000000000000	0.00000000000000	0.00000000000000	
21.22993300000000	-8.95001700000000	713.91557000000000	45.95099000000000	0.23438400000000	0.00000000000000	0.10643500000000	0.00000000000000	0.00000000000000	0.00000000000000	0.00000000000000	0.00000000000000	0.00000000000000	0.00000000000000	22.47276900000000	0.00000000000000	0.00000000000000	0.00000000000000	0.00000000000000	
21.23158400000000	-9.55549900000000	715.71704899999997	46.07172200000000	0.23342600000000	0.00000000000000	0.10642200000000	0.00000000000000	0.00000000000000	0.00000000000000	0.00000000000000	0.00000000000000	0.00000000000000	0.00000000000000	22.64521700000000	0.00000000000000	0.00000000000000	0.00000000000000	0.00000000000000	
21.23325600000000	-10.16340900000000	717.56589299999996	46.19557200000000	0.23244900000000	0.00000000000000	0.10640800000000	0.00000000000000	0.00000000000000	0.00000000000000	0.00000000000000	0.00000000000000	0.00000000000000	0.00000000000000	22.81821400000000	0.00000000000000	0.00000000000000	0.00000000000000	0.00000000000000	
21.23493400000000	-10.77328000000000	719.46187099999997	46.32273400000000	0.23145200000000	0.00000000000000	0.10639400000000	0.00000000000000	0.00000000000000	0.00000000000000	0.00000000000000	0.00000000000000	0.00000000000000	0.00000000000000	22.99169400000000	0.00000000000000	0.00000000000000	0.00000000000000	0.00000000000000	
21.23658500000000	-11.38462400000000	721.40470000000005	46.45340500000000	0.23043800000000	0.00000000000000	0.10638000000000	0.00000000000000	0.00000000000000	0.00000000000000	0.00000000000000	0.00000000000000	0.00000000000000	0.00000000000000	23.16559000000000	0.00000000000000	0.00000000000000	0.00000000000000	0.00000000000000	
